<!-- 夜班猫头鹰 - generated expansion asset -->
<svg xmlns="http://www.w3.org/2000/svg" viewBox="0 0 200 280" fill="none">
  <rect width="200" height="280" fill="#EEF2FF" rx="14"/>
  <circle cx="40" cy="42" r="6" fill="#F3E5D0" opacity="0.45"/><circle cx="160" cy="52" r="5" fill="#FFD166" opacity="0.34"/><circle cx="172.00" cy="64.00" r="4.48" fill="#FFD166" opacity="0.72"/><circle cx="166.47" cy="71.61" r="4.48" fill="#FFD166" opacity="0.72"/><circle cx="157.53" cy="68.70" r="4.48" fill="#FFD166" opacity="0.72"/><circle cx="157.53" cy="59.30" r="4.48" fill="#FFD166" opacity="0.72"/><circle cx="166.47" cy="56.39" r="4.48" fill="#FFD166" opacity="0.72"/>
  <path d="M 132 176 Q 155 156 168 180 Q 155 190 136 198 Z" fill="#7C6A5C"/><path d="M 138 181 Q 150 172 160 178" stroke="#F3E5D0" stroke-width="3" fill="none"/>
  <ellipse cx="100" cy="176" rx="54" ry="48" fill="#7C6A5C"/>
  <ellipse cx="100" cy="120" rx="42" ry="38" fill="#7C6A5C"/>
  <path d="M 70 94 Q 55 66 82 54 Q 90 72 90 92 Z" fill="#7C6A5C"/><path d="M 82 63 Q 74 75 85 92" stroke="#F3E5D0" stroke-width="3" fill="none" opacity="0.82"/>
  <path d="M 130 94 Q 145 66 118 54 Q 110 72 110 92 Z" fill="#7C6A5C"/><path d="M 118 63 Q 126 75 115 92" stroke="#F3E5D0" stroke-width="3" fill="none" opacity="0.82"/>
  <ellipse cx="100" cy="168" rx="30" ry="28" fill="#F3E5D0" opacity="0.94"/>
  <ellipse cx="84" cy="116" rx="8.5" ry="10" fill="#2c1810"/>
  <ellipse cx="116" cy="116" rx="8.5" ry="10" fill="#2c1810"/>
  <circle cx="87" cy="113" r="3" fill="#ffffff"/>
  <circle cx="119" cy="113" r="3" fill="#ffffff"/>
  <ellipse cx="100" cy="130" rx="5" ry="4" fill="#3b2f2f"/>
  <path d="M 88 138 Q 100 144 112 138" stroke="#3b2f2f" stroke-width="2" fill="none" stroke-linecap="round"/>
  <ellipse cx="68" cy="126" rx="10" ry="6" fill="#FFB3C7" opacity="0.48"/>
  <ellipse cx="132" cy="126" rx="10" ry="6" fill="#FFB3C7" opacity="0.48"/>
  
  <rect x="70" y="210" width="12" height="24" rx="6" fill="#7C6A5C"/><rect x="118" y="210" width="12" height="24" rx="6" fill="#7C6A5C"/><ellipse cx="76" cy="234" rx="8" ry="5" fill="#F3E5D0"/><ellipse cx="124" cy="234" rx="8" ry="5" fill="#F3E5D0"/>
  <path d="M 72 110 Q 100 72 128 110" stroke="#FFD166" stroke-width="5" fill="none"/><rect x="62" y="108" width="12" height="18" rx="4" fill="#FFD166"/><rect x="126" y="108" width="12" height="18" rx="4" fill="#FFD166"/><circle cx="138" cy="92" r="6" fill="#F3E5D0" opacity="0.9"/>
  <rect x="54" y="230" width="92" height="18" rx="6" fill="#ffffff" opacity="0.92"/><text x="100" y="242" font-family="Arial" font-size="9" fill="#425466" text-anchor="middle" font-weight="bold">夜班猫头鹰</text>
</svg>
