<!-- 热搜兔 - generated expansion asset -->
<svg xmlns="http://www.w3.org/2000/svg" viewBox="0 0 200 280" fill="none">
  <rect width="200" height="280" fill="#FFF0F7" rx="14"/>
  <circle cx="40" cy="42" r="6" fill="#FFD6E7" opacity="0.45"/><circle cx="160" cy="52" r="5" fill="#FF4D8D" opacity="0.34"/><circle cx="172.00" cy="64.00" r="4.48" fill="#FF4D8D" opacity="0.72"/><circle cx="166.47" cy="71.61" r="4.48" fill="#FF4D8D" opacity="0.72"/><circle cx="157.53" cy="68.70" r="4.48" fill="#FF4D8D" opacity="0.72"/><circle cx="157.53" cy="59.30" r="4.48" fill="#FF4D8D" opacity="0.72"/><circle cx="166.47" cy="56.39" r="4.48" fill="#FF4D8D" opacity="0.72"/>
  <circle cx="142" cy="192" r="14" fill="#F6F1F8"/><circle cx="153" cy="185" r="10" fill="#FFD6E7" opacity="0.82"/>
  <ellipse cx="100" cy="176" rx="54" ry="48" fill="#F6F1F8"/>
  <ellipse cx="100" cy="120" rx="42" ry="38" fill="#F6F1F8"/>
  <ellipse cx="70" cy="94" rx="9" ry="24" fill="#F6F1F8" transform="rotate(-10 70 94)"/><ellipse cx="70" cy="98" rx="5" ry="18" fill="#FFD6E7" opacity="0.82" transform="rotate(-10 70 98)"/>
  <ellipse cx="130" cy="94" rx="9" ry="24" fill="#F6F1F8" transform="rotate(10 130 94)"/><ellipse cx="130" cy="98" rx="5" ry="18" fill="#FFD6E7" opacity="0.82" transform="rotate(10 130 98)"/>
  <ellipse cx="100" cy="168" rx="30" ry="28" fill="#FFD6E7" opacity="0.94"/>
  <ellipse cx="84" cy="116" rx="8.5" ry="10" fill="#2c1810"/>
  <ellipse cx="116" cy="116" rx="8.5" ry="10" fill="#2c1810"/>
  <circle cx="87" cy="113" r="3" fill="#ffffff"/>
  <circle cx="119" cy="113" r="3" fill="#ffffff"/>
  <ellipse cx="100" cy="130" rx="5" ry="4" fill="#3b2f2f"/>
  <path d="M 88 138 Q 100 144 112 138" stroke="#3b2f2f" stroke-width="2" fill="none" stroke-linecap="round"/>
  <ellipse cx="68" cy="126" rx="10" ry="6" fill="#FFB3C7" opacity="0.48"/>
  <ellipse cx="132" cy="126" rx="10" ry="6" fill="#FFB3C7" opacity="0.48"/>
  
  <rect x="70" y="210" width="12" height="24" rx="6" fill="#F6F1F8"/><rect x="118" y="210" width="12" height="24" rx="6" fill="#F6F1F8"/><ellipse cx="76" cy="234" rx="8" ry="5" fill="#FFD6E7"/><ellipse cx="124" cy="234" rx="8" ry="5" fill="#FFD6E7"/>
  <path d="M 132 150 L 156 142 L 156 166 Z" fill="#FF4D8D"/><rect x="124" y="152" width="10" height="10" rx="3" fill="#FFD6E7"/><path d="M 160 146 Q 170 154 160 162" stroke="#FF4D8D" stroke-width="3" fill="none"/>
  <rect x="54" y="230" width="92" height="18" rx="6" fill="#ffffff" opacity="0.92"/><text x="100" y="242" font-family="Arial" font-size="9" fill="#425466" text-anchor="middle" font-weight="bold">热搜兔</text>
</svg>
