<!-- 打卡柴犬 - generated expansion asset -->
<svg xmlns="http://www.w3.org/2000/svg" viewBox="0 0 200 280" fill="none">
  <rect width="200" height="280" fill="#FFF3E4" rx="14"/>
  <circle cx="40" cy="42" r="6" fill="#FFF8F2" opacity="0.45"/><circle cx="160" cy="52" r="5" fill="#3F88C5" opacity="0.34"/><circle cx="172.00" cy="64.00" r="4.48" fill="#3F88C5" opacity="0.72"/><circle cx="166.47" cy="71.61" r="4.48" fill="#3F88C5" opacity="0.72"/><circle cx="157.53" cy="68.70" r="4.48" fill="#3F88C5" opacity="0.72"/><circle cx="157.53" cy="59.30" r="4.48" fill="#3F88C5" opacity="0.72"/><circle cx="166.47" cy="56.39" r="4.48" fill="#3F88C5" opacity="0.72"/>
  <path d="M 136 172 Q 158 168 154 190 Q 148 205 132 196" stroke="#E58A3A" stroke-width="6" fill="none" stroke-linecap="round"/><circle cx="150" cy="190" r="7" fill="#FFF8F2" opacity="0.9"/>
  <ellipse cx="100" cy="176" rx="54" ry="48" fill="#E58A3A"/>
  <ellipse cx="100" cy="120" rx="42" ry="38" fill="#E58A3A"/>
  <path d="M 70 86 L 58 62 L 82 94 Z" fill="#E58A3A"/><path d="M 70 90 L 66 72 L 84 96 Z" fill="#FFF8F2" opacity="0.82"/>
  <path d="M 130 86 L 142 62 L 118 94 Z" fill="#E58A3A"/><path d="M 130 90 L 134 72 L 116 96 Z" fill="#FFF8F2" opacity="0.82"/>
  <ellipse cx="100" cy="168" rx="30" ry="28" fill="#FFF8F2" opacity="0.94"/>
  <ellipse cx="84" cy="116" rx="8.5" ry="10" fill="#2c1810"/>
  <ellipse cx="116" cy="116" rx="8.5" ry="10" fill="#2c1810"/>
  <circle cx="87" cy="113" r="3" fill="#ffffff"/>
  <circle cx="119" cy="113" r="3" fill="#ffffff"/>
  <ellipse cx="100" cy="130" rx="5" ry="4" fill="#3b2f2f"/>
  <path d="M 88 138 Q 100 144 112 138" stroke="#3b2f2f" stroke-width="2" fill="none" stroke-linecap="round"/>
  <ellipse cx="68" cy="126" rx="10" ry="6" fill="#FFB3C7" opacity="0.48"/>
  <ellipse cx="132" cy="126" rx="10" ry="6" fill="#FFB3C7" opacity="0.48"/>
  
  <rect x="70" y="210" width="12" height="24" rx="6" fill="#E58A3A"/><rect x="118" y="210" width="12" height="24" rx="6" fill="#E58A3A"/><ellipse cx="76" cy="234" rx="8" ry="5" fill="#FFF8F2"/><ellipse cx="124" cy="234" rx="8" ry="5" fill="#FFF8F2"/>
  <rect x="86" y="152" width="28" height="18" rx="4" fill="#ffffff" stroke="#3F88C5" stroke-width="2"/><circle cx="94" cy="161" r="4" fill="#3F88C5"/><path d="M 104 157 L 110 161 L 118 153" stroke="#3F88C5" stroke-width="2" fill="none" stroke-linecap="round"/>
  <rect x="54" y="230" width="92" height="18" rx="6" fill="#ffffff" opacity="0.92"/><text x="100" y="242" font-family="Arial" font-size="9" fill="#425466" text-anchor="middle" font-weight="bold">打卡柴犬</text>
</svg>
