<!-- 小红心图标 - 温暖萌宠风格 -->
<svg xmlns="http://www.w3.org/2000/svg" viewBox="0 0 64 64" fill="none">
  <!-- 爱心主体 -->
  <path d="M 32 54 C 32 54 10 38 10 24 C 10 16 16 10 24 10 C 28 10 31 12 32 14 C 33 12 36 10 40 10 C 48 10 54 16 54 24 C 54 38 32 54 32 54 Z"
        fill="#FF6B9D"/>

  <!-- 高光 -->
  <ellipse cx="24" cy="20" rx="6" ry="8" fill="#FFFFFF" opacity="0.4"/>

  <!-- 阴影 -->
  <path d="M 32 54 C 32 54 10 38 10 24 C 10 16 16 10 24 10 C 28 10 31 12 32 14 C 33 12 36 10 40 10 C 48 10 54 16 54 24 C 54 38 32 54 32 54 Z"
        fill="#000000" opacity="0.1" transform="translate(2, 2)"/>
</svg>
