<!-- 危机公关狐獴 - generated expansion asset -->
<svg xmlns="http://www.w3.org/2000/svg" viewBox="0 0 400 300" fill="none">
  <rect width="400" height="300" fill="#FDF6E8" rx="0"/>
  <circle cx="80" cy="84" r="12" fill="#F7E2C8" opacity="0.45"/><circle cx="320" cy="104" r="10" fill="#5B7CFA" opacity="0.34"/><circle cx="338.00" cy="78.00" r="8.96" fill="#5B7CFA" opacity="0.72"/><circle cx="326.94" cy="93.22" r="8.96" fill="#5B7CFA" opacity="0.72"/><circle cx="309.06" cy="87.40" r="8.96" fill="#5B7CFA" opacity="0.72"/><circle cx="309.06" cy="68.60" r="8.96" fill="#5B7CFA" opacity="0.72"/><circle cx="326.94" cy="62.78" r="8.96" fill="#5B7CFA" opacity="0.72"/>
  <path d="M 272 350 Q 316 340 328 376 Q 320 412 284 408" stroke="#C89B6A" stroke-width="12" fill="none" stroke-linecap="round"/><path d="M 290 364 Q 310 372 298 392" stroke="#F7E2C8" stroke-width="8" fill="none" stroke-linecap="round"/>
  <ellipse cx="200" cy="212" rx="82" ry="72" fill="#C89B6A"/>
  <ellipse cx="200" cy="140" rx="64" ry="60" fill="#C89B6A"/>
  <path d="M 40 172 L 16 124 L 64 188 Z" fill="#C89B6A"/><path d="M 40 180 L 32 144 L 68 192 Z" fill="#F7E2C8" opacity="0.82"/>
  <path d="M 160 172 L 184 124 L 136 188 Z" fill="#C89B6A"/><path d="M 160 180 L 168 144 L 132 192 Z" fill="#F7E2C8" opacity="0.82"/>
  <ellipse cx="200" cy="195" rx="48" ry="42" fill="#F7E2C8" opacity="0.94"/>
  <ellipse cx="168" cy="136" rx="13" ry="15" fill="#2c1810"/>
  <ellipse cx="232" cy="136" rx="13" ry="15" fill="#2c1810"/>
  <circle cx="174" cy="132" r="4.8" fill="#ffffff"/>
  <circle cx="238" cy="132" r="4.8" fill="#ffffff"/>
  <ellipse cx="200" cy="156" rx="8" ry="6" fill="#3b2f2f"/>
  <path d="M 176 166 Q 200 176 224 166" stroke="#3b2f2f" stroke-width="3" fill="none" stroke-linecap="round"/>
  <ellipse cx="136" cy="150" rx="14" ry="8" fill="#FFB3C7" opacity="0.48"/>
  <ellipse cx="264" cy="150" rx="14" ry="8" fill="#FFB3C7" opacity="0.48"/>
  
  <rect x="140" y="420" width="24" height="48" rx="12" fill="#C89B6A"/><rect x="236" y="420" width="24" height="48" rx="12" fill="#C89B6A"/><ellipse cx="152" cy="468" rx="16" ry="10" fill="#F7E2C8"/><ellipse cx="248" cy="468" rx="16" ry="10" fill="#F7E2C8"/>
  <circle cx="284" cy="296" r="16" fill="#5B7CFA"/><rect x="280" y="312" width="8" height="36" rx="4" fill="#5B7CFA"/><path d="M 264 352 Q 284 368 304 352" stroke="#F7E2C8" stroke-width="4" fill="none"/>
  
</svg>
