<!-- 后勤河狸 - generated expansion asset -->
<svg xmlns="http://www.w3.org/2000/svg" viewBox="0 0 400 300" fill="none">
  <rect width="400" height="300" fill="#F6F1E8" rx="0"/>
  <circle cx="80" cy="84" r="12" fill="#EED9BF" opacity="0.45"/><circle cx="320" cy="104" r="10" fill="#6C9F4A" opacity="0.34"/><circle cx="338.00" cy="78.00" r="8.96" fill="#6C9F4A" opacity="0.72"/><circle cx="326.94" cy="93.22" r="8.96" fill="#6C9F4A" opacity="0.72"/><circle cx="309.06" cy="87.40" r="8.96" fill="#6C9F4A" opacity="0.72"/><circle cx="309.06" cy="68.60" r="8.96" fill="#6C9F4A" opacity="0.72"/><circle cx="326.94" cy="62.78" r="8.96" fill="#6C9F4A" opacity="0.72"/>
  <ellipse cx="280" cy="376" rx="30" ry="56" fill="#8B6B4A" transform="rotate(24 280 376)"/><line x1="254" y1="354" x2="236" y2="328" stroke="#8B6B4A" stroke-width="10" stroke-linecap="round"/>
  <ellipse cx="200" cy="212" rx="82" ry="72" fill="#8B6B4A"/>
  <ellipse cx="200" cy="140" rx="64" ry="60" fill="#8B6B4A"/>
  <circle cx="40" cy="180" r="22" fill="#8B6B4A"/><circle cx="44" cy="180" r="12" fill="#EED9BF" opacity="0.82"/>
  <circle cx="160" cy="180" r="22" fill="#8B6B4A"/><circle cx="156" cy="180" r="12" fill="#EED9BF" opacity="0.82"/>
  <ellipse cx="200" cy="195" rx="48" ry="42" fill="#EED9BF" opacity="0.94"/>
  <ellipse cx="168" cy="136" rx="13" ry="15" fill="#2c1810"/>
  <ellipse cx="232" cy="136" rx="13" ry="15" fill="#2c1810"/>
  <circle cx="174" cy="132" r="4.8" fill="#ffffff"/>
  <circle cx="238" cy="132" r="4.8" fill="#ffffff"/>
  <ellipse cx="200" cy="156" rx="8" ry="6" fill="#3b2f2f"/>
  <path d="M 176 166 Q 200 176 224 166" stroke="#3b2f2f" stroke-width="3" fill="none" stroke-linecap="round"/>
  <ellipse cx="136" cy="150" rx="14" ry="8" fill="#FFB3C7" opacity="0.48"/>
  <ellipse cx="264" cy="150" rx="14" ry="8" fill="#FFB3C7" opacity="0.48"/>
  <rect x="180" y="300" width="40" height="28" rx="8" fill="#ffffff" opacity="0.86"/><circle cx="200" cy="314" r="6" fill="#6C9F4A"/>
  <rect x="144" y="420" width="28" height="52" rx="14" fill="#8B6B4A"/><rect x="228" y="420" width="28" height="52" rx="14" fill="#8B6B4A"/><ellipse cx="158" cy="472" rx="16" ry="10" fill="#EED9BF"/><ellipse cx="242" cy="472" rx="16" ry="10" fill="#EED9BF"/>
  <rect x="256" y="308" width="56" height="48" rx="8" fill="#6C9F4A"/><line x1="268" y1="320" x2="300" y2="344" stroke="#EED9BF" stroke-width="4"/><line x1="300" y1="320" x2="268" y2="344" stroke="#EED9BF" stroke-width="4"/>
  
</svg>
